<?xml version="1.0" standalone="no"?>
<!DOCTYPE svg PUBLIC "-//W3C//DTD SVG 20010904//EN"
 "http://www.w3.org/TR/2001/REC-SVG-20010904/DTD/svg10.dtd">
<svg version="1.0" xmlns="http://www.w3.org/2000/svg"
 width="382.000000pt" height="382.000000pt" viewBox="0 0 382.000000 382.000000"
 preserveAspectRatio="xMidYMid meet">
<metadata>
Created by potrace 1.14, written by Peter Selinger 2001-2017
</metadata>
<g transform="translate(0.000000,382.000000) scale(0.100000,-0.100000)"
fill="#000000" stroke="none">
<path d="M1914 3632 c4 -7 2 -12 -5 -12 -8 0 -9 -3 0 -14 8 -10 8 -16 -3 -25
-8 -7 -13 -20 -11 -29 1 -9 -1 -21 -5 -27 -5 -5 -9 -13 -9 -17 -2 -10 -5 -19
-32 -98 -12 -36 -27 -71 -32 -77 -5 -7 -6 -13 -1 -13 5 0 4 -4 -3 -8 -6 -4
-13 -16 -15 -27 -1 -11 -10 -26 -18 -33 -13 -12 -13 -13 0 -7 10 4 9 2 -2 -8
-10 -8 -18 -22 -18 -31 0 -9 -5 -16 -11 -16 -5 0 -8 -4 -5 -9 4 -5 3 -11 -2
-13 -4 -1 -35 -43 -67 -93 -58 -88 -107 -155 -152 -205 -13 -14 -23 -31 -23
-38 0 -7 -4 -11 -9 -8 -5 3 -16 -4 -24 -17 -15 -23 -147 -159 -147 -152 0 2
-25 -21 -55 -51 -30 -31 -55 -53 -55 -51 0 3 -16 -10 -35 -29 -20 -19 -40 -34
-46 -34 -5 0 -7 -4 -4 -10 3 -5 2 -10 -3 -10 -5 0 -18 -8 -29 -17 -11 -10 -42
-36 -69 -58 -65 -53 -224 -214 -224 -227 0 -5 -5 -6 -10 -3 -6 3 -10 2 -10 -3
0 -5 -8 -18 -18 -30 -10 -11 -27 -33 -38 -47 -10 -15 -25 -33 -32 -41 -7 -8
-11 -14 -7 -14 4 0 0 -7 -7 -15 -29 -32 -38 -45 -33 -45 4 0 -3 -13 -15 -30
-12 -16 -19 -30 -15 -30 3 0 -1 -10 -9 -22 -9 -12 -16 -30 -16 -40 0 -10 -5
-18 -12 -18 -6 0 -9 -3 -5 -6 3 -4 1 -18 -6 -33 -7 -14 -12 -38 -11 -53 0 -16
-2 -28 -6 -28 -4 0 -8 -15 -9 -33 0 -17 -2 -67 -4 -109 -1 -43 0 -78 3 -78 3
0 6 -10 6 -22 3 -33 10 -70 17 -91 16 -39 20 -53 23 -64 1 -7 12 -24 23 -39
12 -15 21 -33 21 -40 0 -8 5 -14 10 -14 6 0 10 -6 10 -13 0 -7 9 -19 20 -27
11 -8 20 -19 20 -25 0 -14 87 -94 118 -108 12 -6 22 -14 22 -19 0 -5 5 -6 10
-3 6 3 10 2 10 -4 0 -5 16 -15 35 -22 19 -7 35 -17 35 -22 0 -4 4 -6 9 -2 5 3
12 1 16 -5 4 -6 10 -8 15 -5 5 3 11 1 15 -5 3 -5 15 -10 26 -10 10 0 19 -4 19
-9 0 -9 198 -13 214 -4 8 5 42 10 98 13 10 1 20 6 23 11 4 5 11 7 16 4 5 -4 9
-1 9 5 0 6 5 8 10 5 6 -3 10 -2 10 4 0 5 9 8 20 6 11 -2 20 0 20 6 0 5 9 9 20
9 11 0 20 5 20 11 0 5 5 7 10 4 6 -3 10 -1 10 5 0 6 5 8 10 5 6 -3 10 -1 10 6
0 7 3 10 6 6 3 -3 16 5 29 18 12 14 24 23 27 20 2 -3 15 6 28 20 13 14 30 25
38 25 9 0 13 2 10 5 -3 3 14 26 37 51 24 25 56 64 72 87 15 23 30 44 33 47 6
6 24 37 63 108 16 29 32 50 37 47 9 -5 6 -172 -4 -275 -8 -71 -26 -152 -39
-168 -6 -8 -6 -12 2 -12 7 0 6 -9 -5 -25 -9 -14 -13 -25 -8 -25 4 0 0 -6 -9
-12 -12 -9 -16 -23 -13 -46 2 -18 0 -35 -5 -38 -5 -3 -9 -16 -9 -29 0 -13 -5
-27 -10 -30 -6 -4 -8 -11 -5 -16 4 -5 2 -9 -4 -9 -6 0 -13 -11 -17 -25 -3 -14
-10 -25 -16 -25 -5 0 -6 5 -2 12 4 7 3 8 -5 4 -9 -6 -9 -11 1 -24 10 -12 10
-14 1 -8 -8 4 -13 1 -13 -8 0 -9 -5 -16 -12 -16 -6 0 -9 -3 -5 -6 5 -6 -10
-28 -45 -66 -10 -10 -18 -21 -18 -25 0 -5 -22 -29 -49 -55 -26 -26 -46 -50
-43 -53 3 -3 -2 -5 -11 -5 -8 0 -25 -12 -36 -26 -12 -15 -21 -23 -21 -18 0 4
-12 -3 -27 -17 -16 -14 -53 -36 -83 -49 -30 -14 -58 -29 -61 -34 -4 -5 -12 -5
-18 -2 -6 4 -11 3 -11 -2 0 -10 -41 -25 -69 -27 -8 0 -16 -6 -19 -13 -2 -6 -7
-10 -11 -7 -5 2 -23 0 -42 -6 -19 -6 -43 -12 -54 -14 -11 -2 -32 -6 -47 -9
-15 -4 -57 -7 -93 -9 -36 -1 -65 -4 -65 -7 0 -3 -18 -5 -40 -4 -47 1 -48 0
-54 -50 -3 -23 0 -36 7 -36 19 -1 2191 -1 2205 -1 7 1 11 5 7 10 -3 5 -1 12 5
16 15 9 -18 68 -35 61 -7 -2 -16 -2 -20 2 -3 4 -25 8 -48 9 -51 3 -68 6 -84
16 -7 5 -13 4 -13 -2 0 -6 -11 -6 -32 0 -18 5 -49 12 -68 15 -19 3 -43 10 -52
15 -10 5 -18 7 -18 3 0 -3 -6 -2 -12 3 -7 6 -34 16 -60 24 -27 7 -48 18 -48
23 0 5 -3 6 -6 3 -4 -3 -16 -1 -28 5 -11 7 -28 13 -36 14 -8 2 -16 8 -18 14
-2 5 -8 8 -13 4 -5 -3 -9 0 -9 6 0 7 -6 10 -12 8 -7 -3 -21 4 -32 14 -11 10
-26 18 -33 18 -8 0 -12 4 -9 8 2 4 -12 19 -31 32 -48 33 -114 100 -132 133 -8
14 -18 24 -23 21 -4 -3 -8 2 -8 11 0 9 -4 14 -8 11 -5 -3 -15 6 -22 19 -7 14
-17 25 -22 25 -5 0 -6 4 -3 10 3 5 1 10 -5 10 -6 0 -9 4 -6 9 4 5 1 11 -4 13
-6 2 -17 32 -26 68 -8 35 -20 68 -27 73 -9 7 -9 10 0 13 7 3 9 12 6 20 -3 7
-8 12 -12 9 -4 -2 -8 1 -9 8 -1 15 -10 52 -12 52 -1 0 -4 16 -7 35 -2 19 -8
37 -12 40 -7 5 -11 31 -11 78 0 16 -4 21 -13 16 -9 -6 -9 -4 -1 7 9 12 11 34
4 42 -4 5 -9 64 -12 140 -1 42 -6 77 -11 77 -5 0 -4 6 2 14 6 7 9 20 6 28 -4
9 0 15 10 15 8 0 15 -9 15 -19 0 -11 5 -16 10 -13 5 3 10 -2 10 -13 0 -10 9
-28 20 -40 12 -12 18 -22 15 -22 -3 0 3 -10 15 -22 11 -12 20 -25 20 -30 0 -8
22 -37 53 -70 9 -10 17 -22 17 -27 0 -5 12 -19 26 -30 15 -12 24 -21 20 -21
-4 0 -1 -6 6 -14 7 -8 15 -12 17 -10 2 2 16 -9 30 -24 28 -29 119 -92 133 -92
4 0 8 -8 8 -17 0 -15 2 -16 10 -3 8 13 10 13 10 -2 0 -11 5 -15 14 -12 8 3 17
1 21 -5 3 -6 17 -11 30 -11 13 0 26 -4 29 -9 3 -4 20 -12 38 -16 46 -10 219
-17 238 -9 8 4 29 7 45 9 31 2 132 44 175 73 14 9 27 17 30 17 3 0 12 6 20 12
8 7 35 29 58 48 24 19 41 35 38 35 -3 0 6 12 19 26 14 15 25 31 25 36 0 5 4 7
9 4 8 -5 25 29 22 47 -1 4 3 7 8 7 10 0 27 39 23 53 -1 4 3 7 10 7 6 0 9 3 6
6 -3 3 2 26 11 52 10 26 17 57 16 70 -1 12 2 22 6 22 8 0 5 204 -5 245 -4 16
-8 42 -9 57 -1 15 -8 30 -15 33 -7 3 -11 9 -8 14 7 11 -53 161 -65 161 -3 0
-11 16 -19 35 -7 19 -17 32 -21 29 -4 -2 -10 5 -14 15 -3 11 -19 35 -36 53
-117 130 -249 271 -249 264 0 -2 -45 41 -100 94 -55 54 -100 96 -100 94 0 -2
-22 18 -49 44 -27 26 -72 68 -99 95 -28 26 -49 47 -47 47 2 0 -23 27 -56 61
-32 33 -59 64 -59 69 0 4 -7 11 -16 14 -9 4 -14 9 -11 12 2 3 -5 15 -17 28
-24 26 -36 41 -91 116 -22 30 -47 67 -54 83 -8 15 -18 27 -23 27 -4 0 -8 6 -8
14 0 7 -9 25 -21 40 -11 14 -18 26 -16 26 3 0 -6 21 -20 48 -27 50 -83 177
-88 202 -2 8 -4 16 -5 18 -2 1 -4 7 -5 12 -1 6 -4 12 -5 15 -4 9 -7 19 -15 63
-4 23 -12 45 -18 49 -6 3 -7 1 -3 -5z"/>
</g>
</svg>
